<?xml version="1.0" encoding="iso-8859-1"?>
<!-- Generator: Adobe Illustrator 12.0.0, SVG Export Plug-In . SVG Version: 6.00 Build 51448)  -->
<!DOCTYPE svg PUBLIC "-//W3C//DTD SVG 1.1//EN" "http://www.w3.org/Graphics/SVG/1.1/DTD/svg11.dtd" [
	<!ENTITY ns_svg "http://www.w3.org/2000/svg">
	<!ENTITY ns_xlink "http://www.w3.org/1999/xlink">
]>
<svg  version="1.1" id="&#x30EC;&#x30A4;&#x30E4;&#x30FC;_1" xmlns="&ns_svg;" xmlns:xlink="&ns_xlink;"
	 width="500.044" height="262" viewBox="0 0 500.044 262" style="overflow:visible;enable-background:new 0 0 500.044 262;"
	 xml:space="preserve">
<g>
	<path style="fill-rule:evenodd;clip-rule:evenodd;" d="M135.044,170c-9.225,3.108-26.793-2.126-33,4
		c-9.365-6.302-19.139-12.194-30-17c0.31-1.357,2.504-0.83,4-1c-6.347-13.143-6.934-36.736,0-48c5.052,2.948,9.53,6.47,12,12
		c11.821-0.846,22.271-3.062,33-5c0.942-3.967-3.12-11.528-3-18c-25.573-2.76-45.414-11.253-57-28c15.857,1.813,35.697,8.301,58,7
		c3.415-13.585,11.807-22.193,15-36c11.313,5.369,11.806,22.83,9,37c3.687,2.313,11.651,0.349,17,1c0.369,3.964-0.917,9.583,1,12
		c0,1,0,2,0,3c-6.75,2.25-18.431-0.431-24,3c-2.772,4.228-3.359,10.641-3,18c21.556,3.236,59.188,11.096,64,35
		c2.378,11.814-2.281,28.624-16,24c-4.671-0.067,1.171-2.286,1-4c-4.465-1.785-10.878,2.202-18,1
		C155.044,170,145.044,170,135.044,170z M94.044,137c0.658,6.343,3.118,10.882,4,17c31.188-0.855,56.476,4.191,82,9
		C172.463,134.543,124.737,120.553,94.044,137z"/>
	<path style="fill-rule:evenodd;clip-rule:evenodd;" d="M262.044,52c15.855-0.732,27.108,13.059,47,14
		c-8.496,30.119-42.773,4.79-44-13C263.429,53.282,263.322,52.055,262.044,52z"/>
	<path style="fill-rule:evenodd;clip-rule:evenodd;" d="M401.044,106c-3.243-9.424-7.739-17.594-13-25
		c-28.421,10.859-53.946-8.006-64-28c15.195,3.954,33.2,7.483,52,7c18.03-0.463,35.761-8.042,49-3
		c-2.118,13.882-17.677,14.323-28,20c3.862,9.137,10.479,15.521,12,27C406.017,104.306,405.472,107.094,401.044,106z"/>
	<path style="fill-rule:evenodd;clip-rule:evenodd;" d="M225.044,74c1,0,2,0,3,0c2.333,0,4.667,0,7,0c-2.142,2.858-6.538,3.462-9,6
		c-5.085,0.915-8.496,3.504-14,4c-11.492,0.508-20.625,3.375-30,6c-1.936-3.397-2.064-8.603-4-12
		C193.395,76.351,210.463,76.419,225.044,74z"/>
	<path style="fill-rule:evenodd;clip-rule:evenodd;" d="M330.044,86c4.104,3.229,5.727,8.939,9,13c33.026-9.708,56.707,13.841,39,40
		c-11.302,4.031-26.829,3.837-39,7C321.38,137.87,321.084,104.378,330.044,86z M370.044,111c-8.276-5.333-18.337,2.723-28,3
		c0.04,7.707-2.224,13.109-2,21c11.794,0.127,21.723-1.61,32-3C375.941,123.9,375.806,114.713,370.044,111z"/>
	<path style="fill-rule:evenodd;clip-rule:evenodd;" d="M260.044,93c17,1.336,33.117,12.214,54,13c0.466,15.021-14.35,17.612-27,15
		C273.364,118.176,265.531,101.656,260.044,93z"/>
	<path style="fill-rule:evenodd;clip-rule:evenodd;fill:#E20516;" d="M409.044,104c4.739-1.822,9.79-6.273,15-2
		c0,3.333,0,6.667,0,10c-2.33,14.003-0.335,32.331-1,48c-0.1,4.1-0.196,8.196,1,11c5.155,1.511,11.967,1.366,14,6
		c1.662,8.541-12.131,7-23,7c-11.884,0-23.709,1.607-23-6c0.41-4.403,4.762-5.493,12-5c0-3.667,0-7.333,0-11
		c-1.3-13.367,2.621-31.954-2-42c-4.568-0.099-10.144,0.81-12-2c-1.372-9.039,7.629-7.705,11-12
		C405.472,107.094,406.017,104.306,409.044,104z"/>
	<path style="fill-rule:evenodd;clip-rule:evenodd;fill:#717172;" d="M424.044,112c-0.665,15.669,1.33,33.997-1,48
		C423.709,144.331,421.714,126.003,424.044,112z"/>
	<path style="fill-rule:evenodd;clip-rule:evenodd;" d="M404.044,162c-12.995,5.863-33.229,18.313-49,9
		c19.923-12.743,40.634-24.699,47-51C406.665,130.046,402.744,148.633,404.044,162z"/>
	<path style="fill-rule:evenodd;clip-rule:evenodd;" d="M317.044,134c-3.248,15.67-21.743,31.882-40,29
		c-8.697-1.373-11.523-10.809-19-14c19.716-1.105,44.687-5.199,57-17C315.935,132.443,316.832,132.878,317.044,134z"/>
	<path style="fill-rule:evenodd;clip-rule:evenodd;fill:#717172;" d="M165.044,170c-7.678,1.665-22.322,1.665-30,0
		C145.044,170,155.044,170,165.044,170z"/>
	<path style="fill-rule:evenodd;clip-rule:evenodd;fill:#FFFFFF;" d="M1.044,0c166.333,0,332.666,0,499,0c0,87.333,0,174.667,0,262
		c-166.667,0-333.333,0-500,0c0-86.333,0-172.667,0-259C-0.042,1.581-0.121,0.168,1.044,0z M228.044,74
		c3.538-30.703-29.725-52.001-52-34c-1.678,1.356-2.802,6.08-4,8c-0.204,0.328-2.072-1.38-3,0c-6.417,9.55-7.361,17.948-9,30
		c-5.349-0.651-13.313,1.313-17-1c2.806-14.17,2.313-31.631-9-37c-3.193,13.807-11.585,22.415-15,36
		c-22.303,1.301-42.143-5.187-58-7c11.586,16.747,31.427,25.24,57,28c-0.12,6.472,3.942,14.033,3,18
		c-10.729,1.938-21.179,4.154-33,5c-2.47-5.53-6.948-9.052-12-12c-6.934,11.264-6.347,34.857,0,48c-1.496,0.17-3.69-0.357-4,1
		c10.861,4.806,20.635,10.698,30,17c6.207-6.126,23.775-0.892,33-4c7.678,1.665,22.322,1.665,30,0c7.122,1.202,13.535-2.785,18-1
		c0.171,1.714-5.671,3.933-1,4c13.719,4.624,18.378-12.186,16-24c-4.812-23.904-42.444-31.764-64-35c-0.359-7.359,0.228-13.772,3-18
		c5.569-3.431,17.25-0.75,24-3c0-1,0-2,0-3c4.025,19.857,22.148,35.123,45,28c13.639-4.251,20.638-20.949,22-38
		c-0.667,0-1.333,0-2,0c2.462-2.538,6.858-3.142,9-6C232.71,74,230.377,74,228.044,74z M265.044,53c1.227,17.79,35.504,43.119,44,13
		c-19.892-0.941-31.145-14.732-47-14C263.322,52.055,263.429,53.282,265.044,53z M409.044,104c-1.521-11.479-8.138-17.863-12-27
		c10.323-5.677,25.882-6.118,28-20c-13.239-5.042-30.97,2.537-49,3c-18.8,0.483-36.805-3.046-52-7
		c10.054,19.994,35.579,38.859,64,28c5.261,7.406,9.757,15.576,13,25c-3.371,4.295-12.372,2.961-11,12c1.856,2.81,7.432,1.901,12,2
		c-6.366,26.301-27.077,38.257-47,51c15.771,9.313,36.005-3.137,49-9c0,3.667,0,7.333,0,11c-7.238-0.493-11.59,0.597-12,5
		c-0.709,7.607,11.116,6,23,6c10.869,0,24.662,1.541,23-7c-2.033-4.634-8.845-4.489-14-6c-1.196-2.804-1.1-6.9-1-11
		c2.33-14.003,0.335-32.331,1-48c0-3.333,0-6.667,0-10C418.834,97.727,413.783,102.178,409.044,104z M339.044,146
		c12.171-3.163,27.698-2.969,39-7c17.707-26.159-5.974-49.708-39-40c-3.273-4.061-4.896-9.771-9-13
		C321.084,104.378,321.38,137.87,339.044,146z M287.044,121c12.65,2.612,27.466,0.021,27-15c-20.883-0.786-37-11.664-54-13
		C265.531,101.656,273.364,118.176,287.044,121z M315.044,132c-12.313,11.801-37.284,15.895-57,17c7.477,3.191,10.303,12.627,19,14
		c18.257,2.882,36.752-13.33,40-29C316.832,132.878,315.935,132.443,315.044,132z"/>
	<path style="fill-rule:evenodd;clip-rule:evenodd;fill:#0BA0E5;" d="M160.044,78c1.639-12.052,2.583-20.45,9-30
		c0.928-1.38,2.796,0.328,3,0c1.198-1.92,2.322-6.644,4-8c22.275-18.001,55.538,3.297,52,34c-1,0-2,0-3,0c-4.667,0-9.333,0-14,0
		c-0.068-12.265-6.588-18.079-13-24c-18.855-2.855-20.642,11.358-20,28c1.936,3.397,2.064,8.603,4,12
		c2.557,22.542,35.235,15.84,30-6c5.504-0.496,8.915-3.085,14-4c0.667,0,1.333,0,2,0c-1.362,17.051-8.361,33.749-22,38
		c-22.852,7.123-40.975-8.143-45-28C159.127,87.583,160.413,81.964,160.044,78z"/>
	<path style="fill-rule:evenodd;clip-rule:evenodd;fill:#FFFFFF;" d="M178.044,78c-0.642-16.642,1.145-30.855,20-28
		c6.412,5.921,12.932,11.735,13,24c4.667,0,9.333,0,14,0C210.463,76.419,193.395,76.351,178.044,78z"/>
	<path style="fill-rule:evenodd;clip-rule:evenodd;fill:#FFFFFF;" d="M182.044,90c9.375-2.625,18.508-5.492,30-6
		C217.279,105.84,184.601,112.542,182.044,90z"/>
	<path style="fill-rule:evenodd;clip-rule:evenodd;fill:#FFFFFF;" d="M372.044,132c-10.277,1.39-20.206,3.127-32,3
		c-0.224-7.891,2.04-13.293,2-21c9.663-0.277,19.724-8.333,28-3C375.806,114.713,375.941,123.9,372.044,132z"/>
	<path style="fill-rule:evenodd;clip-rule:evenodd;fill:#FFFFFF;" d="M180.044,163c-25.524-4.809-50.812-9.855-82-9
		c-0.882-6.118-3.342-10.657-4-17C124.737,120.553,172.463,134.543,180.044,163z"/>
</g>
<g>
	<path style="fill:#666666;" d="M150.194,234.357c-2.109,0-4.083-0.386-5.921-1.155c-1.838-0.771-3.44-1.889-4.806-3.354
		c-1.338-1.435-2.393-3.209-3.163-5.322s-1.156-4.436-1.156-6.969c0-2.518,0.389-4.85,1.166-6.993s1.87-4.001,3.276-5.573
		c1.379-1.541,3.036-2.735,4.969-3.582s4.002-1.271,6.207-1.271c1.596,0,3.049,0.214,4.361,0.64s2.42,0.913,3.327,1.462l1.257-1.258
		h1.75l0.188,11.844h-1.781c-1.014-3.604-2.23-6.249-3.649-7.937c-1.419-1.688-3.149-2.532-5.19-2.532
		c-2.541,0-4.474,1.264-5.798,3.79c-1.325,2.527-1.987,6.074-1.987,10.639c0,2.581,0.226,4.783,0.679,6.608s1.044,3.294,1.773,4.409
		c0.784,1.16,1.709,2.012,2.776,2.553c1.067,0.543,2.25,0.813,3.547,0.813c1.892,0,3.577-0.579,5.056-1.738s2.827-2.913,4.043-5.262
		l1.75,1.188c-0.582,1.34-1.244,2.539-1.987,3.598c-0.744,1.059-1.602,1.968-2.575,2.729c-1.068,0.838-2.247,1.493-3.538,1.965
		S151.951,234.357,150.194,234.357z"/>
	<path style="fill:#666666;" d="M185.256,213.467c0.999,1.052,1.762,2.308,2.289,3.771c0.526,1.463,0.79,3.047,0.79,4.753
		c0,1.691-0.26,3.287-0.78,4.788c-0.52,1.5-1.28,2.783-2.279,3.85c-1.067,1.143-2.34,2.019-3.819,2.628
		c-1.479,0.609-3.17,0.914-5.075,0.914c-1.648,0-3.164-0.267-4.548-0.8s-2.61-1.333-3.677-2.399
		c-1.026-1.021-1.837-2.281-2.431-3.782c-0.594-1.5-0.891-3.18-0.891-5.039c0-1.828,0.26-3.453,0.78-4.878s1.3-2.692,2.34-3.805
		c1-1.066,2.232-1.893,3.697-2.479c1.465-0.586,3.103-0.88,4.913-0.88c1.891,0,3.555,0.294,4.993,0.88
		C182.997,211.574,184.229,212.4,185.256,213.467z M180.06,229.308c0.296-0.854,0.515-1.891,0.656-3.109
		c0.142-1.221,0.212-2.638,0.212-4.254c0-1.066-0.067-2.287-0.202-3.658c-0.135-1.373-0.337-2.455-0.606-3.248
		c-0.323-0.96-0.771-1.715-1.344-2.264s-1.296-0.823-2.172-0.823c-0.956,0-1.721,0.298-2.293,0.892
		c-0.572,0.596-1.014,1.365-1.323,2.311c-0.283,0.869-0.479,1.887-0.586,3.053c-0.108,1.166-0.162,2.381-0.162,3.646
		c0,1.662,0.047,3.038,0.141,4.128s0.323,2.184,0.687,3.281c0.31,0.945,0.754,1.692,1.333,2.241s1.313,0.823,2.202,0.823
		c0.808,0,1.502-0.255,2.081-0.767C179.265,231.05,179.723,230.299,180.06,229.308z"/>
	<path style="fill:#666666;" d="M217.155,232.982l-10.008,0.656l-0.305-0.323v-2.121l-0.142-0.047
		c-0.661,0.81-1.555,1.516-2.682,2.118s-2.264,0.904-3.41,0.904c-2.726,0-4.972-1.145-6.74-3.435
		c-1.768-2.289-2.651-5.25-2.651-8.883c0-3.221,0.989-5.983,2.967-8.288c1.978-2.305,4.371-3.457,7.179-3.457
		c1.107,0,2.146,0.142,3.119,0.424s1.749,0.614,2.329,0.995v-7.465c0-0.563-0.102-1.092-0.305-1.586s-0.474-0.879-0.813-1.153
		c-0.42-0.335-0.945-0.575-1.575-0.72s-1.264-0.246-1.9-0.308v-1.656l10.977-0.594l0.305,0.366v30.008
		c0,0.58,0.084,1.068,0.252,1.465c0.168,0.397,0.441,0.711,0.818,0.939c0.282,0.168,0.696,0.289,1.242,0.365
		s0.993,0.123,1.344,0.138V232.982z M206.812,228.888v-12.936c-0.095-0.352-0.226-0.74-0.395-1.168
		c-0.168-0.427-0.401-0.832-0.698-1.213c-0.27-0.32-0.63-0.604-1.082-0.848s-0.96-0.366-1.527-0.366
		c-1.349,0-2.454,0.862-3.317,2.587c-0.863,1.725-1.294,4.16-1.294,7.305c0,1.236,0.077,2.347,0.232,3.331s0.428,1.882,0.819,2.69
		c0.391,0.809,0.893,1.442,1.506,1.9s1.352,0.687,2.215,0.687c0.822,0,1.503-0.179,2.043-0.538
		C205.854,229.961,206.353,229.483,206.812,228.888z"/>
	<path style="fill:#666666;" d="M240.268,227.962c-0.473,0.87-1.044,1.691-1.713,2.463s-1.429,1.432-2.281,1.98
		c-0.906,0.581-1.821,1.02-2.747,1.318c-0.926,0.297-1.99,0.446-3.193,0.446c-2,0-3.727-0.32-5.18-0.96
		c-1.453-0.639-2.652-1.5-3.598-2.582c-0.946-1.082-1.653-2.357-2.119-3.828c-0.466-1.469-0.699-3.064-0.699-4.787
		c0-1.553,0.253-3.043,0.76-4.467c0.506-1.424,1.226-2.693,2.158-3.805c0.918-1.082,2.076-1.958,3.474-2.629
		c1.398-0.67,2.961-1.005,4.69-1.005c1.891,0,3.444,0.259,4.66,0.776c1.215,0.518,2.222,1.232,3.019,2.146
		c0.77,0.867,1.33,1.891,1.682,3.07c0.351,1.18,0.527,2.416,0.527,3.711v1.483h-13.688c0,3.13,0.534,5.511,1.603,7.144
		c1.068,1.634,2.765,2.45,5.091,2.45c1.271,0,2.414-0.395,3.428-1.185s1.88-1.791,2.597-3.003L240.268,227.962z M232.518,219.298
		c0-0.916-0.041-1.854-0.122-2.815s-0.223-1.747-0.425-2.357c-0.229-0.717-0.543-1.259-0.941-1.624
		c-0.398-0.367-0.901-0.55-1.509-0.55c-1.04,0-1.87,0.595-2.491,1.785s-0.958,3.074-1.012,5.652L232.518,219.298z"/>
	<path style="fill:#666666;" d="M262.402,214.951c0,1.161-0.318,2.181-0.953,3.058c-0.637,0.879-1.475,1.317-2.517,1.317
		c-0.987,0-1.823-0.281-2.506-0.844s-1.024-1.392-1.024-2.487c0-0.531,0.033-0.945,0.102-1.242c0.066-0.297,0.128-0.574,0.182-0.833
		c-0.621,0.03-1.275,0.272-1.963,0.725s-1.295,1.056-1.82,1.81v12.57c0,0.534,0.074,0.977,0.223,1.328s0.399,0.626,0.751,0.824
		c0.298,0.168,0.78,0.31,1.45,0.424s1.153,0.18,1.451,0.194v1.656h-13.563v-1.656c0.337-0.03,0.677-0.072,1.021-0.126
		c0.343-0.053,0.636-0.126,0.879-0.218c0.431-0.168,0.728-0.427,0.889-0.778s0.243-0.811,0.243-1.375v-13.335
		c0-0.55-0.115-1.042-0.343-1.478c-0.229-0.436-0.505-0.783-0.828-1.043c-0.243-0.183-0.549-0.336-0.919-0.457
		c-0.37-0.123-0.777-0.207-1.222-0.253v-1.656l9.665-0.594l0.304,0.343v3.318h0.081c0.933-1.219,1.922-2.176,2.97-2.87
		c1.047-0.694,2.139-1.041,3.273-1.041c1.257,0,2.267,0.439,3.03,1.317S262.402,213.562,262.402,214.951z"/>
	<path style="fill:#666666;" d="M289.92,204.323c1.756,1.297,3.174,3.024,4.255,5.183c1.081,2.159,1.621,4.802,1.621,7.929
		c0,2.746-0.483,5.137-1.449,7.173s-2.247,3.703-3.841,4.999c-1.621,1.297-3.463,2.263-5.523,2.896s-4.219,0.949-6.476,0.949
		h-14.492v-1.781c0.433-0.015,0.974-0.062,1.622-0.138c0.649-0.076,1.082-0.168,1.299-0.274c0.486-0.229,0.824-0.538,1.014-0.927
		s0.284-0.857,0.284-1.408v-23.023c0-0.519-0.088-0.988-0.263-1.408c-0.176-0.419-0.52-0.758-1.033-1.018
		c-0.512-0.26-1.056-0.436-1.629-0.527c-0.573-0.091-1.016-0.152-1.325-0.183v-1.781h15.298c1.635,0,3.385,0.237,5.248,0.71
		C286.395,202.165,288.19,203.042,289.92,204.323z M285.794,227.585c0.663-1.219,1.146-2.671,1.451-4.355
		c0.305-1.684,0.457-3.623,0.457-5.818c0-2.148-0.203-4.107-0.608-5.875c-0.406-1.769-1.002-3.277-1.787-4.527
		s-1.763-2.218-2.934-2.904c-1.17-0.686-2.5-1.028-3.988-1.028c-0.474,0-1.012,0.012-1.613,0.034
		c-0.604,0.023-1.053,0.042-1.351,0.057v24.624c0,0.549,0.063,1.032,0.192,1.452c0.129,0.419,0.349,0.789,0.66,1.108
		c0.311,0.32,0.693,0.567,1.146,0.743s1.046,0.263,1.777,0.263c1.528,0,2.841-0.319,3.938-0.96
		C284.23,229.757,285.117,228.819,285.794,227.585z"/>
	<path style="fill:#666666;" d="M319.077,213.467c0.999,1.052,1.763,2.308,2.289,3.771s0.79,3.047,0.79,4.753
		c0,1.691-0.26,3.287-0.78,4.788c-0.521,1.5-1.28,2.783-2.278,3.85c-1.068,1.143-2.341,2.019-3.819,2.628
		c-1.479,0.609-3.171,0.914-5.075,0.914c-1.647,0-3.164-0.267-4.548-0.8s-2.61-1.333-3.677-2.399
		c-1.026-1.021-1.837-2.281-2.432-3.782c-0.594-1.5-0.891-3.18-0.891-5.039c0-1.828,0.26-3.453,0.779-4.878
		c0.521-1.425,1.301-2.692,2.34-3.805c1-1.066,2.232-1.893,3.697-2.479c1.466-0.586,3.104-0.88,4.914-0.88
		c1.891,0,3.555,0.294,4.992,0.88C316.818,211.574,318.051,212.4,319.077,213.467z M313.881,229.308
		c0.297-0.854,0.516-1.891,0.656-3.109c0.143-1.221,0.213-2.638,0.213-4.254c0-1.066-0.067-2.287-0.202-3.658
		c-0.135-1.373-0.337-2.455-0.606-3.248c-0.322-0.96-0.771-1.715-1.344-2.264s-1.296-0.823-2.172-0.823
		c-0.955,0-1.721,0.298-2.293,0.892c-0.572,0.596-1.014,1.365-1.322,2.311c-0.283,0.869-0.479,1.887-0.586,3.053
		c-0.108,1.166-0.162,2.381-0.162,3.646c0,1.662,0.047,3.038,0.141,4.128c0.095,1.09,0.324,2.184,0.688,3.281
		c0.31,0.945,0.754,1.692,1.334,2.241c0.578,0.549,1.313,0.823,2.201,0.823c0.809,0,1.502-0.255,2.082-0.767
		C313.086,231.05,313.545,230.299,313.881,229.308z"/>
	<path style="fill:#666666;" d="M334.758,230.751c0,1.57-0.236,3.156-0.709,4.758s-1.147,2.975-2.025,4.118
		c-0.959,1.251-2.12,2.227-3.483,2.929c-1.364,0.701-2.923,1.052-4.679,1.052c-1.633,0-2.893-0.354-3.777-1.062
		c-0.884-0.709-1.326-1.664-1.326-2.867c0-0.426,0.044-0.822,0.132-1.188s0.274-0.746,0.558-1.143
		c0.217-0.334,0.552-0.62,1.004-0.855c0.454-0.236,0.965-0.354,1.533-0.354c1.122,0,1.987,0.453,2.596,1.359
		c0.609,0.906,1.231,2.266,1.867,4.078c0.555-0.351,0.964-1.099,1.228-2.243s0.396-3.633,0.396-7.463v-15.818
		c0-0.534-0.102-1.004-0.304-1.408s-0.479-0.744-0.829-1.019c-0.256-0.198-0.664-0.385-1.225-0.561
		c-0.559-0.175-1.055-0.286-1.486-0.332v-1.656l10.229-0.594l0.303,0.343V230.751z M334.852,202.228c0,1.162-0.395,2.15-1.186,2.967
		c-0.789,0.817-1.725,1.226-2.805,1.226c-1.094,0-2.035-0.408-2.825-1.226c-0.79-0.816-1.185-1.805-1.185-2.967
		c0-1.16,0.395-2.152,1.185-2.977s1.731-1.237,2.825-1.237s2.032,0.413,2.815,1.237S334.852,201.067,334.852,202.228z"/>
	<path style="fill:#666666;" d="M359.827,213.467c0.999,1.052,1.763,2.308,2.289,3.771s0.79,3.047,0.79,4.753
		c0,1.691-0.26,3.287-0.78,4.788c-0.521,1.5-1.28,2.783-2.278,3.85c-1.068,1.143-2.341,2.019-3.819,2.628
		c-1.479,0.609-3.171,0.914-5.075,0.914c-1.647,0-3.164-0.267-4.548-0.8s-2.61-1.333-3.677-2.399
		c-1.026-1.021-1.837-2.281-2.432-3.782c-0.594-1.5-0.891-3.18-0.891-5.039c0-1.828,0.26-3.453,0.779-4.878
		c0.521-1.425,1.301-2.692,2.34-3.805c1-1.066,2.232-1.893,3.697-2.479c1.466-0.586,3.104-0.88,4.914-0.88
		c1.891,0,3.555,0.294,4.992,0.88C357.568,211.574,358.801,212.4,359.827,213.467z M354.631,229.308
		c0.297-0.854,0.516-1.891,0.656-3.109c0.143-1.221,0.213-2.638,0.213-4.254c0-1.066-0.067-2.287-0.202-3.658
		c-0.135-1.373-0.337-2.455-0.606-3.248c-0.322-0.96-0.771-1.715-1.344-2.264s-1.296-0.823-2.172-0.823
		c-0.955,0-1.721,0.298-2.293,0.892c-0.572,0.596-1.014,1.365-1.322,2.311c-0.283,0.869-0.479,1.887-0.586,3.053
		c-0.108,1.166-0.162,2.381-0.162,3.646c0,1.662,0.047,3.038,0.141,4.128c0.095,1.09,0.324,2.184,0.688,3.281
		c0.31,0.945,0.754,1.692,1.334,2.241c0.578,0.549,1.313,0.823,2.201,0.823c0.809,0,1.502-0.255,2.082-0.767
		C353.836,231.05,354.295,230.299,354.631,229.308z"/>
</g>
</svg>
